<?xml version="1.0" encoding="UTF-8" standalone="no"?>
<!DOCTYPE svg PUBLIC "-//W3C//DTD SVG 1.1//EN"
 "http://www.w3.org/Graphics/SVG/1.1/DTD/svg11.dtd">
<!-- Generated by graphviz version 2.40.1 (20161225.0304)
 -->
<!-- Title: %3 Pages: 1 -->
<svg width="145pt" height="260pt"
 viewBox="0.00 0.00 145.07 260.00" xmlns="http://www.w3.org/2000/svg" xmlns:xlink="http://www.w3.org/1999/xlink">
<g id="graph0" class="graph" transform="scale(1 1) rotate(0) translate(4 256)">
<title>%3</title>
<polygon fill="#f0f8ff" stroke="transparent" points="-4,4 -4,-256 141.0747,-256 141.0747,4 -4,4"/>
<!-- A -->
<g id="node1" class="node">
<title>A</title>
<ellipse fill="#f5f5dc" stroke="#000000" cx="91" cy="-234" rx="27" ry="18"/>
<text text-anchor="middle" x="91" y="-230.3" font-family="Times,serif" font-size="14.00" fill="#000000">A</text>
</g>
<!-- B -->
<g id="node2" class="node">
<title>B</title>
<ellipse fill="#f5f5dc" stroke="#000000" cx="27" cy="-162" rx="27" ry="18"/>
<text text-anchor="middle" x="27" y="-158.3" font-family="Times,serif" font-size="14.00" fill="#000000">B</text>
</g>
<!-- A&#45;&gt;B -->
<g id="edge6" class="edge">
<title>A&#45;&gt;B</title>
<path fill="none" stroke="#0000ff" d="M73.2021,-220.1177C62.4484,-209.6175 49.2225,-195.0188 39.5319,-183.08"/>
<polygon fill="#0000ff" stroke="#0000ff" points="33.1055,-183.0435 40.9216,-176.8055 42.1691,-178.3687 34.3531,-184.6067 33.1055,-183.0435"/>
<polyline fill="none" stroke="#0000ff" points="36.3898,-179.1429 39.5087,-183.0509 "/>
</g>
<!-- C -->
<g id="node3" class="node">
<title>C</title>
<ellipse fill="#f5f5dc" stroke="#000000" cx="87" cy="-18" rx="27" ry="18"/>
<text text-anchor="middle" x="87" y="-14.3" font-family="Times,serif" font-size="14.00" fill="#000000">C</text>
</g>
<!-- A&#45;&gt;C -->
<g id="edge9" class="edge">
<title>A&#45;&gt;C</title>
<path fill="none" stroke="#0000ff" d="M94.7872,-215.7341C105.5579,-185.4286 129.4523,-123.0353 114,-72 110.5206,-60.5084 103.7001,-49.2271 97.572,-39.9722"/>
<polygon fill="#0000ff" stroke="#0000ff" points="91.0428,-39.2165 99.3458,-33.6432 100.4605,-35.3038 92.1575,-40.8771 91.0428,-39.2165"/>
<polyline fill="none" stroke="#0000ff" points="94.637,-35.5996 97.4236,-39.7511 "/>
</g>
<!-- D -->
<g id="node4" class="node">
<title>D</title>
<ellipse fill="#f5f5dc" stroke="#000000" cx="87" cy="-90" rx="27" ry="18"/>
<text text-anchor="middle" x="87" y="-86.3" font-family="Times,serif" font-size="14.00" fill="#000000">D</text>
</g>
<!-- A&#45;&gt;D -->
<g id="edge12" class="edge">
<title>A&#45;&gt;D</title>
<path fill="none" stroke="#0000ff" d="M85.8577,-216.0535C82.4996,-190.0761 81.0022,-141.9759 82.5195,-113.2928"/>
<polygon fill="#0000ff" stroke="#0000ff" points="77.7857,-108.8601 87.7664,-109.4814 87.6421,-111.4776 77.6614,-110.8563 77.7857,-108.8601"/>
<polyline fill="none" stroke="#0000ff" points="82.8381,-108.1727 82.5275,-113.1631 "/>
</g>
<!-- B&#45;&gt;A -->
<g id="edge3" class="edge">
<title>B&#45;&gt;A</title>
<path fill="none" stroke="#0000ff" d="M44.9591,-176.0399C55.712,-186.5559 68.8955,-201.1177 78.5446,-213.0143"/>
<polygon fill="#0000ff" stroke="#0000ff" points="84.9585,-213.0377 77.1401,-219.2726 75.8931,-217.709 83.7115,-211.474 84.9585,-213.0377"/>
<polyline fill="none" stroke="#0000ff" points="81.6728,-216.937 78.5553,-213.0278 "/>
</g>
<!-- B&#45;&gt;C -->
<g id="edge8" class="edge">
<title>B&#45;&gt;C</title>
<path fill="none" stroke="#b8860b" d="M23.2496,-144.1646C24.469,-125.5732 31.2151,-95.8741 42,-72 47.8968,-58.9465 56.8145,-45.5412 65.4008,-35.3524"/>
<polygon fill="#b8860b" stroke="#b8860b" points="64.3733,-28.9335 71.8993,-35.5183 70.5823,-37.0236 63.0563,-30.4387 64.3733,-28.9335"/>
<polyline fill="none" stroke="#b8860b" points="68.7948,-31.4733 65.5024,-35.2364 "/>
</g>
<!-- B&#45;&gt;D -->
<g id="edge11" class="edge">
<title>B&#45;&gt;D</title>
<path fill="none" stroke="#b8860b" d="M35.6461,-144.5708C43.7275,-133.5029 55.618,-119.2101 66.0376,-108.0285"/>
<polygon fill="#b8860b" stroke="#b8860b" points="65.1892,-101.6528 72.45,-108.5291 71.0747,-109.9812 63.8139,-103.105 65.1892,-101.6528"/>
<polyline fill="none" stroke="#b8860b" points="69.5072,-104.3649 66.0691,-107.9952 "/>
</g>
<!-- C&#45;&gt;A -->
<g id="edge2" class="edge">
<title>C&#45;&gt;A</title>
<path fill="none" stroke="#b8860b" d="M106.3409,-31.0469C116.4954,-41.3264 127.2983,-56.4712 132,-72 147.1238,-121.9506 124.5558,-182.7816 107.0183,-213.7588"/>
<polygon fill="#b8860b" stroke="#b8860b" points="109.2926,-219.7708 100.6626,-214.7186 101.673,-212.9926 110.303,-218.0448 109.2926,-219.7708"/>
<polyline fill="none" stroke="#b8860b" points="104.4724,-218.1077 106.9985,-213.7927 "/>
</g>
<!-- C&#45;&gt;B -->
<g id="edge5" class="edge">
<title>C&#45;&gt;B</title>
<path fill="none" stroke="#b8860b" d="M81.0266,-35.6237C74.6569,-45.7785 65.8446,-59.062 60,-72 50.0202,-94.0918 43.4987,-121.1714 38.0003,-139.8222"/>
<polygon fill="#b8860b" stroke="#b8860b" points="41.5494,-145.3437 31.9806,-142.4387 32.5617,-140.5249 42.1304,-143.4299 41.5494,-145.3437"/>
<polyline fill="none" stroke="#b8860b" points="36.4745,-144.848 37.9271,-140.0636 "/>
</g>
<!-- C&#45;&gt;D -->
<g id="edge10" class="edge">
<title>C&#45;&gt;D</title>
<path fill="none" stroke="#000000" d="M92.895,-35.593C93.8599,-45.0635 94.0081,-56.859 93.3397,-67.0439"/>
<polygon fill="#000000" stroke="#000000" points="97.9809,-71.6153 88.0145,-70.7959 88.1783,-68.8027 98.1447,-69.622 97.9809,-71.6153"/>
<polyline fill="none" stroke="#000000" points="92.9157,-72.2022 93.3254,-67.219 "/>
</g>
<!-- D&#45;&gt;A -->
<g id="edge1" class="edge">
<title>D&#45;&gt;A</title>
<path fill="none" stroke="#000000" d="M92.113,-107.7204C95.5003,-133.7099 97.0099,-182.1869 95.4688,-210.9267"/>
<polygon fill="#000000" stroke="#000000" points="100.1984,-215.3704 90.2182,-214.7405 90.3442,-212.7445 100.3244,-213.3744 100.1984,-215.3704"/>
<polyline fill="none" stroke="#000000" points="95.1453,-216.0535 95.4603,-211.0634 "/>
</g>
<!-- D&#45;&gt;B -->
<g id="edge4" class="edge">
<title>D&#45;&gt;B</title>
<path fill="none" stroke="#000000" d="M78.4898,-107.2429C70.3783,-118.3746 58.358,-132.8263 47.854,-144.0877"/>
<polygon fill="#000000" stroke="#000000" points="48.6742,-150.4897 41.4175,-143.6092 42.7936,-142.1578 50.0503,-149.0384 48.6742,-150.4897"/>
<polyline fill="none" stroke="#000000" points="44.3578,-147.7751 47.7981,-144.1468 "/>
</g>
<!-- D&#45;&gt;C -->
<g id="edge7" class="edge">
<title>D&#45;&gt;C</title>
<path fill="none" stroke="#000000" d="M81.0843,-72.2022C80.1312,-62.6985 79.9947,-50.898 80.6749,-40.7366"/>
<polygon fill="#000000" stroke="#000000" points="76.039,-36.1728 86.0042,-37.0063 85.8375,-38.9993 75.8723,-38.1659 76.039,-36.1728"/>
<polyline fill="none" stroke="#000000" points="81.105,-35.593 80.6882,-40.5756 "/>
</g>
</g>
</svg>
